<?xml version="1.0" encoding="utf-8"?>
<!-- Generator: Adobe Illustrator 26.3.1, SVG Export Plug-In . SVG Version: 6.00 Build 0)  -->
<svg version="1.1" id="Layer_1" xmlns="http://www.w3.org/2000/svg" xmlns:xlink="http://www.w3.org/1999/xlink" x="0px" y="0px"
	 viewBox="0 0 85 33.2" style="enable-background:new 0 0 85 33.2;" xml:space="preserve">
<style type="text/css">
	.st0{fill:#253A7C;}
</style>
<path id="logo" class="st0" d="M42.3,30.5c1.7,1.7,4,2.7,6.5,2.7h19.6L85,16.6L68.4,0H59l13.3,13.3H54.4c-0.7,0-1.4-0.3-1.8-0.7
	l-9.8-9.8c-1.7-1.7-4-2.7-6.6-2.8H16.6L0,16.6l16.6,16.6H26L12.7,19.9h17.9c0.7,0,1.4,0.3,1.8,0.7C32.4,20.6,42.3,30.5,42.3,30.5z
	 M37.2,16c-1.7-1.7-4-2.7-6.5-2.7h-18l6.6-6.6h16.8c0.7,0,1.4,0.3,1.9,0.8l9.8,9.8c1.7,1.7,4,2.7,6.5,2.7h17.9l-6.6,6.6H48.7
	c-0.7,0-1.4-0.3-1.8-0.8L37.2,16z"/>
</svg>
