<svg id="Layer_1" data-name="Layer 1" xmlns="http://www.w3.org/2000/svg" xmlns:xlink="http://www.w3.org/1999/xlink" viewBox="0 0 85 33.2"><defs><style>.cls-1{fill:none;}.cls-2{clip-path:url(#clip-path);}.cls-3{fill:#253a7c;}</style><clipPath id="clip-path" transform="translate(0 0)"><polyline class="cls-1" points="85 0 85 33.2 0 33.2 0 0"/></clipPath></defs><title>logo Edited</title><g class="cls-2"><path class="cls-3" d="M48.7,26.6a2.34,2.34,0,0,1-1.8-.8L37.2,16a9.15,9.15,0,0,0-6.5-2.7h-18L26,0H16.6L0,16.6,16.6,33.2H26L12.7,19.9H30.6a2.67,2.67,0,0,1,1.8.7l9.9,9.9a9.15,9.15,0,0,0,6.5,2.7H59l6.6-6.6Z" transform="translate(0 0)"/><path class="cls-3" d="M36.3,6.6a2.34,2.34,0,0,1,1.8.8l9.7,9.8a9.15,9.15,0,0,0,6.5,2.7h18L59,33.2h9.4L85,16.6,68.4,0H59L72.3,13.3H54.4a2.67,2.67,0,0,1-1.8-.7L42.7,2.7A9.15,9.15,0,0,0,36.2,0H26L19.4,6.6Z" transform="translate(0 0)"/></g></svg>